<?xml version="1.0" encoding="UTF-8" standalone="no"?>
<svg
   height="48px"
   width="48px"
   version="1.1"
   viewBox="0 0 512 512"
   xml:space="preserve"
   xmlns="http://www.w3.org/2000/svg">
<path
   style="fill:#ff3704;fill-opacity:1"
   d="M256,0v512c141.384,0,256-114.616,256-256S397.384,0,256,0z"
   id="path4" /><path
   style="fill:#ff4313;fill-opacity:1"
   d="M0,256c0,141.384,114.615,256,256,256l22.261-256L256,0C114.615,0,0,114.615,0,256z"
   id="path2" />

<polygon
   style="fill:#FFFFFF;"
   points="161.555,114.333 114.333,161.555 208.778,256 114.333,350.445 161.555,397.667 256,303.222   278.261,256 256,208.778 "
   id="polygon6" />
<polygon
   style="fill:#ffffff;fill-opacity:1"
   points="397.667,161.555 350.445,114.333 256,208.778 256,303.222 350.445,397.667 397.667,350.445   303.222,256 "
   id="polygon8" />
</svg>
