<?xml version="1.0" encoding="UTF-8" standalone="no"?>
<svg
   height="48px"
   width="48px"
   version="1.1"
   viewBox="0 0 512 512"
   xml:space="preserve"
   xmlns="http://www.w3.org/2000/svg">

<path
   style="fill:#88cc2a;stroke-width:1.12236"
   d="M 256,505.84811 C 118.22994,505.84811 6.1518896,393.76445 6.1518896,256 6.1518896,118.23555 118.22994,6.1518896 256,6.1518896 393.77006,6.1518896 505.84811,118.23667 505.84811,256 505.84811,393.76333 393.77006,505.84811 256,505.84811 Z" />
<path
   style="fill:#7fb335;stroke-width:1.12236"
   d="M 505.84811,256 C 505.84811,118.23667 393.77006,6.1518896 256,6.1518896 V 505.84699 C 393.77006,505.84811 505.84811,393.76333 505.84811,256 Z" />
<path
   style="fill:#ffffff;stroke-width:1.12236"
   d="m 231.01508,368.43159 c -9.58947,0 -19.17782,-3.66002 -26.49787,-10.98007 l -77.22307,-77.22307 c -14.6401,-14.63337 -14.6401,-38.36125 0,-52.99574 14.64011,-14.6401 38.35564,-14.6401 52.99574,0 l 50.7252,50.71959 106.94099,-106.93651 c 14.6401,-14.6401 38.35563,-14.6401 52.99574,0 14.6401,14.63337 14.6401,38.36125 0,52.99574 L 257.51295,357.45152 c -7.31893,7.32005 -16.9084,10.98007 -26.49787,10.98007 z" />
<path
   style="fill:#edf0f2;stroke-width:1.12236"
   d="M 337.95607,171.01804 256,252.96962 v 105.71762 c 0.48823,-0.44109 1.04155,-0.76433 1.51295,-1.23572 L 390.95181,224.01265 c 14.6401,-14.63337 14.6401,-38.36124 0,-52.99573 -14.63898,-14.63898 -38.35564,-14.63898 -52.99574,0.001 z" />
</svg>
